<svg xmlns="http://www.w3.org/2000/svg" xmlns:xlink="http://www.w3.org/1999/xlink" style="isolation:isolate" viewBox="2 13 32 8" width="32pt" height="8pt"><path d=" M 33.902 15.014 C 33.141 16.247 31.881 17.183 30.38 17.24 C 29.202 17.285 28.115 16.794 27.143 16.176 C 25.201 14.94 23.285 12.83 20.776 13.011 C 19.597 13.095 18.518 13.659 18.015 14.755 C 18.009 14.766 18.006 14.778 18 14.789 C 17.996 14.777 17.991 14.766 17.986 14.755 C 17.483 13.659 16.404 13.095 15.225 13.011 C 12.717 12.831 10.799 14.941 8.858 16.176 C 7.885 16.794 6.799 17.285 5.62 17.24 C 4.12 17.183 2.86 16.247 2.099 15.014 C 2.062 14.954 1.976 15.006 2.006 15.067 C 2.396 15.883 2.862 16.659 3.407 17.383 C 3.863 17.986 4.473 18.43 5.135 18.789 C 5.469 18.971 5.815 19.134 6.168 19.28 C 5.634 19.303 5.265 19.281 4.6 19.072 C 4.546 19.055 4.529 19.127 4.577 19.157 C 5.491 19.729 6.106 19.861 6.956 20.12 C 7.845 20.39 8.867 20.391 9.787 20.263 C 9.833 20.257 9.879 20.249 9.926 20.241 C 9.832 20.316 9.735 20.385 9.63 20.447 C 9.3 20.643 8.915 20.757 8.534 20.801 C 8.479 20.808 8.478 20.895 8.534 20.887 C 8.838 20.849 9.09 21 9.38 21 C 10.281 21.001 11.188 21.012 12.071 20.809 C 12.959 20.605 13.804 20.26 14.611 19.845 C 14.717 19.79 14.822 19.733 14.927 19.674 C 14.697 20.007 14.488 20.354 14.199 20.649 C 14.173 20.676 14.194 20.714 14.228 20.717 C 14.298 20.723 14.369 20.722 14.441 20.716 C 15.036 20.766 15.687 20.605 16.201 20.342 C 17.015 19.924 17.602 19.178 18 18.38 C 18.398 19.178 18.986 19.924 19.8 20.342 C 20.313 20.605 20.965 20.766 21.559 20.716 C 21.631 20.722 21.703 20.723 21.772 20.717 C 21.807 20.714 21.826 20.675 21.801 20.649 C 21.514 20.354 21.303 20.007 21.073 19.674 C 21.178 19.733 21.284 19.789 21.389 19.845 C 22.196 20.26 23.041 20.605 23.928 20.809 C 24.811 21.012 25.718 21 26.619 21 C 26.908 21 27.161 20.849 27.465 20.887 C 27.52 20.895 27.52 20.808 27.465 20.801 C 27.084 20.757 26.698 20.643 26.368 20.447 C 26.263 20.385 26.166 20.316 26.073 20.241 C 26.12 20.248 26.166 20.257 26.212 20.263 C 27.131 20.391 28.155 20.39 29.043 20.12 C 29.892 19.862 30.508 19.729 31.422 19.157 C 31.47 19.127 31.452 19.055 31.399 19.072 C 30.734 19.281 30.365 19.303 29.831 19.28 C 30.185 19.134 30.53 18.971 30.864 18.789 C 31.525 18.43 32.136 17.986 32.592 17.383 C 33.138 16.659 33.604 15.883 33.994 15.067 C 34.024 15.006 33.939 14.954 33.902 15.014 Z " fill-rule="evenodd" fill="rgb(255,255,255)"/></svg>