<?xml version="1.0" encoding="UTF-8" standalone="no"?>
<svg xmlns="http://www.w3.org/2000/svg" xmlns:xlink="http://www.w3.org/1999/xlink" style="isolation:isolate" viewBox="0 0 16 16" width="16pt" height="16pt"><defs><clipPath id="_clipPath_6ig4R6KG5KN5AmlbdGrnDSLA7PFrQ4Qr"><rect width="16" height="16"/></clipPath></defs><g clip-path="url(#_clipPath_6ig4R6KG5KN5AmlbdGrnDSLA7PFrQ4Qr)"><g><path d=" M 4.6 9.6 L 10.434 15.434 C 10.747 15.747 11.358 16 11.8 16 L 15.2 16 C 15.642 16 16 15.642 16 15.2 L 16 0.8 C 16 0.358 15.642 0 15.2 0 L 8 0 L 10.199 2.199 L 10.8 2.2 L 11.4 2.2 L 12.96 2.2 C 13.313 2.2 13.6 2.487 13.6 2.84 L 13.6 13.8 L 12.64 13.8 C 12.287 13.8 11.797 13.597 11.547 13.347 L 4.6 6.4 L 4.6 9.6 Z " fill="rgb(37,111,219)"/><path d=" M 11.4 6.4 L 5.566 0.566 C 5.253 0.253 4.642 0 4.2 0 L 0.8 0 C 0.358 0 0 0.358 0 0.8 L 0 15.2 C 0 15.642 0.358 16 0.8 16 L 8 16 L 5.801 13.801 L 5.2 13.8 L 4.6 13.8 L 3.04 13.8 C 2.687 13.8 2.4 13.513 2.4 13.16 L 2.4 2.2 L 3.36 2.2 C 3.713 2.2 4.203 2.403 4.453 2.653 L 11.4 9.6 L 11.4 6.4 Z " fill="rgb(255,255,255)"/></g></g></svg>